PathFileType	4	(X/Y/Z)	C:/Users/beibeiliu/ov580/test_trc/User2\sequence.15_training_dense_right.trc
DataRate	CameraRate	NumFrames	NumMarkers	Units	OrigDataRate	OrigDataStartFrame	OrigNumFrames
120	120	16	19	mm	120	30	87
Frame#	Time	ThumbCMC			ThumbMCP			ThumbIP			ThumbTip			IndexMCP			IndexPIP			IndexTip			MiddleMCP			MiddlePIP			MiddleTip			RingMCP			RingPIP			RingTip			PinkyMCP			PinkyPIP			PinkyTip			BackHand1			BackHand2			BackHand3	
		X0	Y0	Z0	X1	Y1	Z1	X2	Y2	Z2	X3	Y3	Z3	X4	Y4	Z4	X5	Y5	Z5	X6	Y6	Z6	X7	Y7	Z7	X8	Y8	Z8	X9	Y9	Z9	X10	Y10	Z10	X11	Y11	Z11	X12	Y12	Z12	X13	Y13	Z13	X14	Y14	Z14	X15	Y15	Z15	X16	Y16	Z16	X17	Y17	Z17	X18	Y18	Z18	
29	0.241667	225.461	22.9675	-61.3589	196.327	38.4821	-84.2508	169.269	39.4908	-112.44	152.453	17.5504	-125.7	235.344	-0.107484	-143.173	235.215	4.9522	-166.078	230.625	8.99776	-193.854	201.182	-14.7249	-145.004	171.701	6.13512	-146.882	170.371	24.9681	-110.704	185.691	-30.1181	-134.131	161.264	-7.62505	-141.267	159.296	13.5623	-111.756	179.874	-51.8801	-112.498	164.448	-60.1059	-135.352	154.14	-67.6966	-152.728	217.839	-42.7859	-81.7255	226.269	-47.0519	-47.0573	245.153	-13.8865	-68.6329	
30	0.25	212.038	29.7281	-58.9957	181.341	36.6325	-82.9944	158.285	30.1993	-108.17	148.072	9.81027	-124.486	236.297	21.2952	-134.642	233.797	23.1576	-162.72	232.292	28.4838	-187.742	207.462	-5.11127	-142.728	172.068	5.61854	-146.954	162.057	13.5671	-109.484	196.387	-26.1311	-138.564	168.396	-11.4223	-144.699	155.164	0.666462	-110.213	197.632	-50.0079	-119.405	188.011	-56.8109	-143.679	182.378	-65.9828	-162.655	227.069	-35.0598	-80.9035	233.565	-36.5307	-49.4622	243.783	-1.32066	-64.5846	
31	0.258333	194.134	27.5522	-51.6778	163.371	26.8177	-80.8534	145.863	16.9507	-107.451	143.292	-4.94152	-129.064	224.119	33.2015	-126.003	222.24	44.1096	-154.595	219.915	48.6816	-181.593	205.81	5.06233	-141.399	170.011	2.37996	-146.589	154.164	4.11099	-107.111	201.611	-16.7425	-139.269	170.461	-15.6128	-144.827	153.506	-8.15106	-116.137	211.313	-45.6355	-121.551	206.213	-49.6959	-146.301	205.456	-54.8233	-170.918	231.265	-22.3576	-80.5608	238.553	-25.7528	-45.7935	234.383	7.47837	-60.1417	
32	0.266667	174.652	19.4259	-42.9138	147.77	11.4707	-77.2629	134.87	0.99991	-109.013	143.708	-18.7532	-130.401	204.294	43.0835	-115.793	197.818	57.921	-144.455	194.356	63.0966	-167.45	199.303	13.0524	-132.458	164.026	1.71075	-143.699	150.891	-13.7111	-108.373	203.271	-10.3207	-135.11	173.437	-17.0212	-145.507	153.32	-25.1165	-114.539	220.484	-33.5138	-119.884	220.063	-41.1671	-145.753	220.584	-40.4976	-173.847	232.03	-14.6396	-75.9539	235.965	-21.7879	-45.3583	221.319	14.8262	-56.1288	
33	0.275	161.078	1.96112	-39.746	137.083	-9.62882	-69.3547	128.894	-20.6044	-103.604	142.681	-31.5463	-131.752	177.508	45.5689	-109.73	171.745	54.4077	-133.01	168.121	60.3636	-159.656	188.735	12.2735	-126.873	159.59	-6.8323	-142.425	148.427	-27.1891	-110.503	197.453	-7.77797	-134.053	173.507	-23.7983	-144.133	157.886	-40.0429	-117.717	223.64	-23.8371	-119.352	225.872	-27.0853	-142.992	232.387	-25.5402	-169.618	225.523	-4.18617	-70.8329	229.649	-11.1491	-41.7298	201.844	16.7593	-44.7386	
34	0.283333	153.242	-12.268	-39.6555	132.582	-27.1157	-71.285	131.457	-38.0741	-100.949	144.532	-44.6283	-130.855	161.565	32.8188	-106.385	147.942	46.1253	-131.223	143.969	51.4258	-153.761	171.631	10.9204	-125.895	155.485	-16.0355	-140.505	151.217	-40.338	-105.973	190.516	-6.30855	-128.639	174.434	-28.0553	-142.04	158.262	-48.8548	-112.283	220.496	-17.6205	-115.693	225.373	-19.5086	-140.35	229.944	-13.3696	-162.86	216.269	-3.70589	-66.4132	221.557	-8.8503	-34.9317	187.899	12.8891	-44.0333	
35	0.291667	148.612	-22.1984	-34.7067	131.712	-40.2586	-70.7939	129.503	-53.3824	-101.973	149.759	-57.0768	-123.65	144.722	25.1105	-106.592	138.79	28.6772	-130.027	128.034	36.1487	-153.596	165.643	1.32387	-126.85	153.402	-30.1737	-138.655	154.845	-52.5848	-104.884	188.855	-12.7978	-126.333	169.545	-38.2031	-138.521	163.331	-60.3899	-108.418	216.983	-16.1231	-115.195	219.989	-18.9588	-134.848	227.81	-14.2888	-159.771	206.268	1.05697	-64.0876	215.635	-5.62423	-30.7752	180.886	9.35077	-42.3047	
36	0.3	143.164	-25.7789	-36.1097	130.736	-49.6711	-63.1389	130.99	-63.9413	-100.864	149.66	-69.2154	-120.087	141.11	13.0159	-108.395	127.868	16.5714	-131.133	122.902	17.4672	-157.083	157.761	-9.07464	-124.468	151.097	-41.5455	-134.512	148.185	-61.137	-96.9628	182.537	-21.0574	-123.748	168.472	-50.8507	-132.829	161.032	-66.6733	-101.587	214.186	-24.0379	-108.593	220.739	-25.8304	-137.071	223.282	-22.0512	-153.7	199.632	-3.37635	-63.7035	206.872	-2.32209	-34.2809	173.102	6.33373	-39.4254	
37	0.308333	140.893	-25.2028	-28.513	124.214	-52.0619	-55.8203	124.362	-71.3682	-91.5663	144.796	-78.3874	-110.64	136.365	4.66121	-106.922	126.607	5.35737	-132.054	113.057	6.05532	-157.368	155.846	-19.0462	-122.338	146.988	-53.7196	-127.315	145.423	-66.5041	-87.9341	177.872	-30.8865	-120.772	161.488	-61.9164	-124.61	152.624	-72.2514	-93.6875	210.169	-33.6689	-107.805	214.437	-39.3953	-133.445	217.524	-38.7643	-155.878	198.119	-5.16783	-62.483	207.537	-2.76272	-34.9415	168.697	7.07231	-44.8833	
38	0.316667	138.08	-14.4635	-24.1853	117.967	-43.3031	-46.4979	112.619	-67.7529	-76.8056	127.565	-82.8121	-93.884	133.742	2.21255	-110.111	120.813	1.15274	-132.832	110.156	-4.2204	-158.274	152.737	-27.5201	-117.504	132.203	-57.331	-118.35	128.054	-65.9449	-77.2064	165.651	-43.5889	-116.642	150.549	-69.426	-116.068	138.076	-73.6677	-80.8119	199.747	-47.4238	-101.695	201.937	-60.3252	-122.247	202.087	-66.1294	-146.025	195.402	-12.2682	-62.5712	204.827	-4.76618	-35.4582	172.402	10.0408	-45.999	
39	0.325	135.941	-0.28049	-22.6769	112.292	-29.8461	-42.7886	102.248	-55.6285	-63.6591	108.769	-76.3114	-77.4916	133.696	3.90217	-104.257	118.928	1.91001	-128.978	104.393	-4.69213	-153.775	139.813	-29.0946	-114.625	115.973	-57.6624	-107.541	114.674	-59.5678	-67.2353	153.792	-53.5415	-109.66	129.369	-70.8394	-102.384	121.014	-67.196	-66.3324	182.69	-59.9246	-97.6928	180.073	-79.2276	-115.544	176.592	-92.4174	-136.238	194.713	-20.9919	-64.4944	208.407	-12.6425	-34.6552	175.79	11.6587	-49.3407	
40	0.333333	141.482	12.8117	-26.7539	110.312	-10.8426	-34.9499	89.3477	-35.8244	-50.9484	92.9625	-60.02	-65.4601	134.736	7.15761	-106.696	118.692	1.17265	-129.101	99.8005	-4.64988	-153.546	135.402	-30.5241	-109.327	103.687	-45.4106	-102.732	98.6834	-44.5282	-60.772	142.698	-53.2844	-99.1466	111.888	-63.1461	-91.4143	105.51	-56.2742	-57.0154	166.172	-71.4685	-86.7286	154.104	-89.8388	-100.8	145.986	-104.642	-116.604	188.268	-25.3485	-64.0031	207.858	-17.6286	-37.5379	181.7	7.30656	-51.2368	
41	0.341667	152.159	24.0265	-28.8917	112.91	11.968	-30.9923	88.1611	-13.0726	-45.359	82.8186	-40.2956	-55.9983	137.153	13.0961	-108.665	118.166	9.01968	-129.577	99.716	7.04066	-148.256	125.133	-23.053	-106.782	93.1458	-32.2034	-93.5476	91.8722	-23.2944	-52.917	126.645	-47.1588	-94.0371	98.6236	-46.6355	-84.9939	97.4853	-32.4691	-47.5048	148.572	-68.2708	-75.4433	126.837	-83.9698	-89.833	115.535	-99.0962	-97.9763	185.928	-29.2505	-61.4539	202.236	-23.6764	-38.4374	186.702	10.0015	-54.1168	
42	0.35	164.122	32.7332	-34.5678	123.502	31.0233	-32.7174	90.4737	10.9063	-42.5574	81.0801	-17.0977	-50.027	139.507	15.4301	-113.006	122.375	16.766	-129.395	102.059	17.6291	-148.481	120.427	-14.6895	-103.022	89.2335	-11.4866	-90.845	89.0585	3.92137	-51.477	119.897	-31.27	-90.5483	89.9455	-25.4772	-79.5562	92.3654	-5.79519	-51.3164	132.806	-59.3098	-68.5139	111.575	-70.2432	-76.2252	90.9097	-82.3377	-87.0852	180.313	-29.0922	-60.6777	199.537	-27.6119	-39.2496	190.124	7.47828	-60.4994	
43	0.358333	176.562	40.0106	-40.4604	136.281	44.3426	-39.046	102.162	30.5432	-43.8517	88.4697	6.56844	-46.6098	148.563	18.2653	-113.369	128.381	26.8669	-137.854	110.596	29.3523	-153.596	124.532	-2.84849	-101.545	91.1292	13.057	-91.6095	94.7387	28.5445	-56.3453	117.702	-22.2274	-90.8321	88.3614	-5.15719	-80.9145	95.11	11.9305	-52.4616	121.578	-48.64	-66.9839	98.4334	-52.5068	-74.8652	76.6782	-62.0399	-81.6914	175.852	-28.1003	-60.7887	196.897	-30.0361	-40.7845	195.724	0.734774	-60.3793	
44	0.366667	183.06	35.6704	-46.7058	148.398	51.8529	-46.2564	112.204	44.3504	-50.8539	92.7183	22.2551	-52.8493	154.04	20.3853	-122.548	139.314	27.9628	-140.544	117.427	29.4972	-160.778	124.798	3.99092	-106.793	95.5248	22.0489	-93.8762	106.163	40.6522	-60.5047	113.042	-14.1105	-93.741	90.386	7.48426	-85.4147	101.75	24.9192	-58.3677	117.514	-36.2325	-70.0783	90.892	-42.6062	-75.0169	70.5041	-46.1897	-85.6135	170.565	-30.0896	-65.4805	193.962	-32.348	-37.3477	198.991	-1.67978	-63.5504	
